<svg width="24" height="24" viewBox="0 0 24 24" fill="none" xmlns="http://www.w3.org/2000/svg">
<path d="M7.79991 2H16.1999C19.3999 2 21.9999 4.6 21.9999 7.8V16.2C21.9999 17.7383 21.3888 19.2135 20.3011 20.3012C19.2134 21.3889 17.7382 22 16.1999 22H7.79991C4.59991 22 1.99991 19.4 1.99991 16.2V7.8C1.99991 6.26174 2.61098 4.78649 3.69869 3.69878C4.7864 2.61107 6.26165 2 7.79991 2ZM7.59991 4C6.64513 4 5.72945 4.37928 5.05432 5.05442C4.37919 5.72955 3.99991 6.64522 3.99991 7.6V16.4C3.99991 18.39 5.60991 20 7.59991 20H16.3999C17.3547 20 18.2704 19.6207 18.9455 18.9456C19.6206 18.2705 19.9999 17.3548 19.9999 16.4V7.6C19.9999 5.61 18.3899 4 16.3999 4H7.59991ZM17.2499 5.5C17.5814 5.5 17.8994 5.6317 18.1338 5.86612C18.3682 6.10054 18.4999 6.41848 18.4999 6.75C18.4999 7.08152 18.3682 7.39946 18.1338 7.63388C17.8994 7.8683 17.5814 8 17.2499 8C16.9184 8 16.6004 7.8683 16.366 7.63388C16.1316 7.39946 15.9999 7.08152 15.9999 6.75C15.9999 6.41848 16.1316 6.10054 16.366 5.86612C16.6004 5.6317 16.9184 5.5 17.2499 5.5ZM11.9999 7C13.326 7 14.5978 7.52678 15.5354 8.46447C16.4731 9.40215 16.9999 10.6739 16.9999 12C16.9999 13.3261 16.4731 14.5979 15.5354 15.5355C14.5978 16.4732 13.326 17 11.9999 17C10.6738 17 9.40206 16.4732 8.46437 15.5355C7.52669 14.5979 6.99991 13.3261 6.99991 12C6.99991 10.6739 7.52669 9.40215 8.46437 8.46447C9.40206 7.52678 10.6738 7 11.9999 7ZM11.9999 9C11.2043 9 10.4412 9.31607 9.87859 9.87868C9.31598 10.4413 8.99991 11.2044 8.99991 12C8.99991 12.7956 9.31598 13.5587 9.87859 14.1213C10.4412 14.6839 11.2043 15 11.9999 15C12.7956 15 13.5586 14.6839 14.1212 14.1213C14.6838 13.5587 14.9999 12.7956 14.9999 12C14.9999 11.2044 14.6838 10.4413 14.1212 9.87868C13.5586 9.31607 12.7956 9 11.9999 9Z" fill="#424242"/>
</svg>
